<svg id="Layer_1" data-name="Layer 1" xmlns="http://www.w3.org/2000/svg" viewBox="0 0 94.48 139"><path d="M13.56,54.43c.07.2,28.9,77.1,29,77.28,2.25,6.63-7.19,10.3-10,3.82-3.8-9.22-7.42-18.43-10.89-27.76-4.6-13.08-10-26.32-12-40.33-.4-3.32-.05-7.68,3.14-9.92.12-.12.55-.43.69-.54,3.7-3.55,6-8.77,10.76-12.06,10.71-7.47,23.28-2.72,30.53,7a5.77,5.77,0,0,1,.7,1.32c4.92,12.39,11.89,29.89,16.83,42,2.07,5.52,3.94,11.22,6.6,16.4l.2.35.08.15a.43.43,0,0,0-.15-.15s-.07,0,0,0l.32.34.63.7c2.79,3.34,4.94,6.88,7.45,10.15,1,1.31,2.05,2.52,3.13,3.75a17.84,17.84,0,0,1,3.56,4.36,2.63,2.63,0,0,1-1.84,3.85c-4.65.58-8.62-2.41-12-5.12-3.61-3-6.06-7-9.07-10.3a14.41,14.41,0,0,1-1.9-2.51C60.58,101.77,54.68,84.59,48.52,68c-1.27-3.59-2.55-7.16-3.77-10.78l.7,1.32-.32-.4c-3-3.6-7.74-6.82-12.37-5-4.81,1.81-7,8-11.08,11.54a24.55,24.55,0,0,1-1.92,1.62l-.49.37a3.91,3.91,0,0,0,.95-.91,3.58,3.58,0,0,0,.5-1c0,3.41,1.12,7.84,2.09,11.58,5.2,18.57,12.44,37.11,19.62,55.1,0,0-9.91,4-9.91,4L.55,59.61c-3.32-8.86,9.31-13.91,13-5.18Z"/><path d="M18,85.64,78.38,74.46a4.23,4.23,0,0,1,1.91,8.23L21.12,99.28A7,7,0,1,1,18,85.64Z"/><path d="M51.68,13.67c-8.38,1.42-18.35,2.75-26.8,3.82-6.2.44-13.64-.49-16.43-7.18C6.76,6.21,9.84,1,14.31.74c1.33,0,3.71-.26,5.18-.4a38.22,38.22,0,0,1,11,.28c3.95,1,7,2.93,10.11,5.16,1.42,1.2,3,1.92,3.65,3.9a4.45,4.45,0,0,1-3,5.54,6.39,6.39,0,0,1-2.5.12c-1.67-.17-2.53-1.6-3.77-2.5a29.41,29.41,0,0,0-6.72-4.62c-2.48-1.05-5.66-1.09-8.49-1.13-1.69,0-3.37,0-5.2,0h0a.3.3,0,0,0,.15,0c-.21,0-.49.41-.53.62-.11.51.12.71.71,1,1.91.45,6.38,1.5,9.26,1.07l7.26-.88c5.69-.63,13.77-1.53,19.4-2a3.45,3.45,0,0,1,.86,6.84Z"/></svg>