<svg id="Layer_1" data-name="Layer 1" xmlns="http://www.w3.org/2000/svg" viewBox="0 0 99.44 130"><path d="M25.51,15.91C28.84,31.44,32.41,47,36.23,62.44c1.93,7.71,3.92,15.4,6.11,23,1.92,6.39,3.7,12.93,6.58,18.87a11.16,11.16,0,0,0,.63,1s0,.06,0,0a4.41,4.41,0,0,1,1.12,5.79,4.33,4.33,0,0,1-6,1.37,9,9,0,0,1-2.24-2.14c-2.35-3.22-3.79-6.87-5.29-10.42C32.59,88.62,29,77.05,25.33,65.48,20.59,50.1,16.16,34.73,11.9,19.2,9.77,9.92,23.12,6.62,25.51,15.91Z"/><path d="M6.52,49a46.56,46.56,0,0,1-3.24-6.32C1.73,39-.5,35.24.1,30.79A9.19,9.19,0,0,1,1,27.85,7.82,7.82,0,0,1,3.7,24.91a92.43,92.43,0,0,1,9-4.32c10.53-4.3,22.48-7.5,34-3.69,3.36,1.25,6.56,2.94,9.8,4.5,10.56,5.33,21.34,11.37,29.1,20.76C90.25,48,93.37,54.71,95.88,61.48A62.38,62.38,0,0,1,99.39,75a24.74,24.74,0,0,1-1.54,9.6,42.52,42.52,0,0,1-7.22,13.49,27.1,27.1,0,0,1-6.21,5.6c-1.84,1.06-3.68,2.19-5.41,3.41-3.65,2.6-7.66,5.8-12,7.68-6.69,3-14.2,4.23-21.25,4.65a116.8,116.8,0,0,1-14,0,4.81,4.81,0,0,1-1.6-.38c-6.05-2.45-7.92-9.73-6-15.42a17.72,17.72,0,0,1,9.66-11.42c6.07-2.22,9.54,6.49,3.63,9.07a8.32,8.32,0,0,0-3.75,5.06,5.38,5.38,0,0,0-.21,2.76,1,1,0,0,0,.41.6.2.2,0,0,0,.08,0h0l-.05,0-.17-.07-1.27-.25c10,.33,20.93,0,30.06-4.21,5.25-2.48,9.52-6.92,14.7-9.9,3.31-1.82,5.7-4.84,7.7-8.8A28.27,28.27,0,0,0,88,76.4c-.83-5.68-3.12-11.25-5.57-16.46A38.77,38.77,0,0,0,72.09,46.11c-8-6.5-17.87-10.9-27.37-15C34.77,26.28,20.28,32.3,10.81,37l-.12.06s-.09,0,0,0a6.47,6.47,0,0,0,2.67-2.62,3.82,3.82,0,0,0,.45-1.36c0-.19-.1.13-.17.45l-.24,1.23c-1,4.06-1,8.71-1.57,13A2.9,2.9,0,0,1,6.52,49Z"/></svg>