<svg id="Layer_1" data-name="Layer 1" xmlns="http://www.w3.org/2000/svg" viewBox="0 0 127.69 130"><path d="M16.62,25.81C20.42,40.1,24.89,54.56,30,68.47c5.08,13.62,11,27.64,19.4,39.3a3.66,3.66,0,0,1-5.49,4.85c-1.36-1.47-2.71-3-4-4.51-8.21-10.83-14.41-23.21-20-35.48A450.89,450.89,0,0,1,3.18,29.72a7,7,0,1,1,13.44-3.91Z"/><path d="M1.28,31.12c6.7-8.34,17-13.35,27.43-14.6a61.77,61.77,0,0,1,9.71-.22c12.17.65,24.77.29,36.43,4.74L85.71,25.3c3.07,1.22,6.88,2.84,9.93,2.92a2.53,2.53,0,0,1,2.87,2.48c-.16,3.75-6.71,2.77-8.8,2.67C83.63,32.76,77.78,30.75,72.1,29c-7.1-2.12-14.49-2-22-1.85-3.87.1-7.77.26-11.69.43A41.21,41.21,0,0,0,28.12,29c-6,1.71-11.68,5.11-15.34,10.1-5.56,7.41-16.52-.17-11.5-8Z"/><path d="M12.88,49.42c14.63-1.56,29.12-3.26,43.85-3.9,6.43-.14,12.77.36,19.06.67,9.21.5,18.42.78,27.64.63,3.08-.17,6.18.29,9.26.3l-.6.13c2.15-.55,4.38-1.16,6.49-1.86a38.64,38.64,0,0,0,6.12-2.49,2,2,0,0,1,2,3.47,64,64,0,0,1-6.41,3.38c-2.06.9-4.59,2.19-6.68,2.94a84.63,84.63,0,0,1-12.83,2.24c-12.34,1.35-25.22,1.7-37.41,2.29-8.1.39-15.87,2-23.87,3.31S23.28,63.4,15.19,64.92a7.84,7.84,0,1,1-2.31-15.5Z"/></svg>