<svg id="Layer_1" data-name="Layer 1" xmlns="http://www.w3.org/2000/svg" viewBox="0 0 113.7 130"><path d="M13.74,17.62c8,28.36,14.54,59.94,21.48,88.61,0,0,.33,1.1.3,1a6.73,6.73,0,0,0-.6-1c-1.53-2.3-5.2-3.49-7.46-2.49-.5.26.19.07.61,0a17.27,17.27,0,0,1,7-.81,4.51,4.51,0,0,1,4,4.92,11.42,11.42,0,0,1-1.52,4.2c-1.65,2.83-4.61,5.3-8.11,5.38a6.25,6.25,0,0,1-1.61-.16,7.26,7.26,0,0,1-2.69-1.22,6.63,6.63,0,0,1-1.2-1.13,7.21,7.21,0,0,1-.77-1.08,28.51,28.51,0,0,1-2-5.1,891.9,891.9,0,0,1-21.09-88C-1.2,12,11.09,9.19,13.74,17.62Z"/><path d="M79.49,18.69c3.89,21,5.29,42.91,10.67,63.55a78.61,78.61,0,0,0,6.5,16.93l1,2.5a5,5,0,0,1-2.86,6.43c-3.88,1.42-7.68-2.46-10-5-4.1-4.85-6.31-10.86-8.41-16.51a182.77,182.77,0,0,1-7.07-27.71A246.36,246.36,0,0,1,65.72,31c-.2-3.75-.33-7.44-.19-11.29a7,7,0,0,1,14-1Z"/><path d="M13.66,59.91a62.75,62.75,0,0,1,12.51-1.32c12-.42,24.12-.37,36.18-.49,16.13,0,32.16-1.32,48.28.72a3.6,3.6,0,0,1,.32,7.05C95.09,69.36,79,69.52,62.94,71c-8.43.69-27.86,2.45-36,2.9-4.41.24-9,.7-13.27-.5a6.94,6.94,0,0,1,0-13.49Z"/></svg>