<svg id="Layer_1" data-name="Layer 1" xmlns="http://www.w3.org/2000/svg" viewBox="0 0 61.54 130"><path d="M.53,71.35c-.35.64-.2.4-.23.42.8-2.58,2-6.69,2.81-9.33,2.69-9.39,5.3-19.33,6.31-28.88.24-2.74.45-6-.15-8.48a2.23,2.23,0,0,0-.35-.83s0,0,0,.05H9l-.05,0-.07-.05c-.06-.06-.11,0,.41.27a3.27,3.27,0,0,0,1.47.29,3.76,3.76,0,0,0,3.09-1.7,37.34,37.34,0,0,0,.46,10A145.11,145.11,0,0,0,29.83,77.87a34.48,34.48,0,0,0,6.91,8.67c1.24,1.17,4.27,4,5.52,5.2,3.67,3.34,7.45,7.22,11.37,10,.06,0,0-.11-.68-.32a4.84,4.84,0,0,0-1-.18c-.26,0-.3,0-.18,0a19.75,19.75,0,0,1,2.56-.17,7,7,0,1,1-.74,14,2.76,2.76,0,0,0-.7,0c-.3,0-.76,0-1.45,0-4.8-.24-7.73-3.91-10.84-6.78L33.33,101c-4.71-4.57-11.14-10.7-14.54-16.15C10.68,72.93,6.71,58.82,4.46,44.75c-1-7.3-1.87-14.48-.89-21.94.35-2.19,1.23-5.36,3.64-6.89,2.68-1.92,6.53-.83,8.38,1.28,4.57,4.77,3.47,11.74,2.8,17.47-1.94,12-5.62,23.5-9.64,34.93C8.26,70.93,7.46,73,6.91,74.32a3.54,3.54,0,1,1-6.38-3Z"/></svg>