<svg id="Layer_1" data-name="Layer 1" xmlns="http://www.w3.org/2000/svg" viewBox="0 0 124.29 130"><path d="M15,97.85c-5.49-1.93-5-8-4.94-12.78-.71-9-3.26-17.66-4.67-26.53C3.89,51,1.85,39.68.14,32.29a5.86,5.86,0,0,1,7-7c2.53.61,3.8,2.56,5.23,4.36C23.22,43.76,39.05,63.54,58.1,62.43c7.11-.74,14.56-4.69,18.28-10.81,6.88-11.94,1.55-28.54-3.95-40.26A32.13,32.13,0,0,0,70,7.26s0,0,.09,0l.3.15a3.07,3.07,0,0,0,1,.26l2.93-1a2.79,2.79,0,0,0,.78-1.26c0-.1,0-.09,0,0a18.25,18.25,0,0,0,.22,2.32A174.22,174.22,0,0,0,82.91,34.8c2.13,5,3.54,10.25,5.19,15.43,6.72,20.28,13.52,41.07,24.3,59.48,2.36,3.58,4.78,7.69,8.45,9.64,6.39,2.5,3.12,12-3.56,9.87-10.22-4-17.4-19.61-22-28.9-8.31-17.74-14.63-36-20.19-54.68-1.52-5.33-2.16-10.9-3.49-16.28A210.54,210.54,0,0,1,68,8.57a14.19,14.19,0,0,1,.23-5.26A3.83,3.83,0,0,1,73.59.89c2.67,1.42,4.22,4.05,5.88,6.37A66.11,66.11,0,0,1,88.08,27c4.1,15.59.83,32.57-14.09,41.19a36.14,36.14,0,0,1-14.85,5.08C35,75.11,16.7,53.81,3.4,36.65l-.94-1.18-.29-.32.07.07.12.1.28.22a5.61,5.61,0,0,0,8.77-4.65A4.94,4.94,0,0,0,11.3,30c0,.21.27,1.08.32,1.32,2.63,12.1,5.38,26.11,7.59,38.27.83,4.43,1.41,8.91,2.87,13.19a37.61,37.61,0,0,1,2.23,6.45c1.57,5.4-4,10.78-9.34,8.59Z"/></svg>