<svg id="Layer_1" data-name="Layer 1" xmlns="http://www.w3.org/2000/svg" viewBox="0 0 104.56 130"><path d="M21.56,117.27C20.68,110,18.71,103,16.93,96,11.75,75.5,5.86,53,.25,32.8c-2.07-8.29,9.23-12.47,13.06-4.88,2,3,5.86,9,7.79,12l1.95,3a6.6,6.6,0,0,1,.57,1.76C34.58,63.65,47.94,82,64.3,96.39a78.39,78.39,0,0,0,21.23,13.55,13.61,13.61,0,0,0,4.58,1.12,0,0,0,0,1,.06,0,1.18,1.18,0,0,0-.6.4s-.06.13-.07.1a1.69,1.69,0,0,0,.17-.47c.8-3.65,0-7.37-.66-11.18a120,120,0,0,0-3.72-13.46C80.72,72.7,74.83,59.4,68.61,46.23,64.42,37.43,60,28.62,55.46,20.1c-1.13-1.93-.91-4.16-.52-6.17a14.67,14.67,0,0,1,2.58-6.59c5.06-6.51,15.9-1.89,13.07,6.5a7,7,0,0,1-9.05,4,6.12,6.12,0,0,0,7.32-2.33c.23-.44.12-.28.07-.08s-.14.57-.2.93-.13.86-.15,1.05l-.82-4C79.54,35.66,90.53,58.1,98.88,81.9c3.34,10.58,9.27,27.51,2.77,37.79a13.78,13.78,0,0,1-11.48,6c-4.18.09-8.17-1.24-11.93-2.88-8.62-3.61-16.6-9.11-23.67-15.06C38.83,94.31,26.34,78,15.17,60.86c-1.77-2.63-3.27-5.44-5.1-8a6.85,6.85,0,0,1-1.33-1.42C7,48.19,5.13,44.55,3.65,41.21c-1-2.35-2-4.63-2.94-7.19l13.06-4.88c5.29,20.29,11.63,42.7,17.4,63,2,7,3.82,14,6.73,20.74a8.55,8.55,0,1,1-16.34,4.41Z"/></svg>