<svg id="Layer_1" data-name="Layer 1" xmlns="http://www.w3.org/2000/svg" viewBox="0 0 177.04 130"><path d="M27.94,36.05a65.44,65.44,0,0,0,5.25,14.87c.77,2.11,1.53,5.36,2.14,7.56,1.28,4.81,4.91,17.72,6.3,22.67,2.28,7.46,4.29,15.47,7.6,22.29l.62.69s.14.13-.13-.07a4.82,4.82,0,0,0-1.79-.82c-.85-.58-5.44.38-6,3.11-.74,3.45-.21,1.85-.25,3a3.38,3.38,0,0,0,.34,1c-2.68-4.14-7.13-9.74-11.44-13,0,0,0,0,0,0l-.11,0-.21-.08-.42-.15c-6.71-2.36-15.21-3.5-19-10.47-.81-1.53-3.42-7.83-4.18-9.52-2.59-6.14-5.35-12.27-6.52-19a19.27,19.27,0,0,1-.13-4.16c.4-3.17,2.88-6.18,4.77-8.32a109,109,0,0,1,30.5-22.15c3.81-1.72,7.78-3.42,12.45-3H48l.5,0c.42-.07.91,0,1.34-.08,8.46-1.23,18.1-4.75,27.58-3.79a33.6,33.6,0,0,1,13.92,4.65c7.35,4.08,11.79,11.5,8.63,18.12C96.3,47.6,89.45,55.32,80.2,57.19c-11.42,2.59-23.66,4.88-34.64,8.47a29.53,29.53,0,0,0-4,1.63,76.85,76.85,0,0,0-6.88,4.37,11.3,11.3,0,0,0-2.06,1.83,2.76,2.76,0,0,0,.2-1.45,5,5,0,0,0-1.51-2.85l-.06-.07a.6.6,0,0,0-.13-.08l.08,0c6.77,3.1,15,4.51,22.31,6.18,1,.19,4.27.86,4.9,1,10.12,1.3,20.31,2.41,30.46,3.36,12.65,1,25.2,2.32,37.66,1.13l.71-.12.71-.11.59-.14.29-.07.47-.12c6.93-2,13.36-1.73,19.57-2.63a50,50,0,0,0,10.38-2.93,44.26,44.26,0,0,0,4.52-2c2.62-1.29,8.56-5.22,9.75-.64a2.66,2.66,0,0,1-.08,1.13,15.41,15.41,0,0,1-4.55,6.51,41.39,41.39,0,0,1-6.33,5.09c-4.59,2.92-10.46,4.39-15.74,4.87s-9.53.76-13.5,1.9a45,45,0,0,1-5.09,1.14c-13.47,1.62-27.14.4-40.41-.43q-15.75-1.2-31.4-3.09c-1.2-.19-4.22-.78-5.46-1-7.55-1.53-14.79-3-22.17-5.54-2.06-.75-5.21-2-7-4-3-3-2.9-8.23-.76-11.7A15.26,15.26,0,0,1,23,64.2c3.08-3.33,6.8-5.48,10.27-7.64a38.7,38.7,0,0,1,7.9-3.64c11.91-3.92,23.9-6.15,36-8.92,4.91-1,8.16-5.5,10.33-9.82.11-.24.34-.74.46-1a3.1,3.1,0,0,0-.39,2.2c-1.14-1.67-4-3.14-5.9-4-3.81-1.74-7.65-1.76-11.91-1.3-7.48.85-16.49,4.25-23.69,3.47a22.11,22.11,0,0,0-5.21,1.79,104.44,104.44,0,0,0-12.79,7.31A131.4,131.4,0,0,0,16,51.45,34.56,34.56,0,0,0,11.22,56l-.06.07c0-.12.1-.31.1-.49v-.18a2.65,2.65,0,0,1,0,.27c0,.06,0,.1,0,.17v.31a10.8,10.8,0,0,0,.08,1.39c1.05,7.89,4.54,16.4,7.13,24,1.53,4.68,8.45,5.82,12.81,6.71.52.09,1.32.27,1.82.38a12.16,12.16,0,0,1,3.24,1.39c5,3.29,8.7,7.55,12.51,12.05,1.2,1.59,2.51,2.85,3.08,5,0,1.2.52-.36-.25,3.13-.52,2.78-5.17,3.73-6,3.15a6.68,6.68,0,0,1-1.42-.55,9.88,9.88,0,0,1-2-1.65,15.53,15.53,0,0,1-1.75-2.05,56.54,56.54,0,0,1-4.54-9.27C33.75,94.8,32,89.77,30.27,84.72c-2.53-7.27-4.94-15.39-7.15-22.79-.55-2.24-1.74-5.39-2.1-7.65a73.08,73.08,0,0,0-3-15.65c-1.89-6.88,8.17-9.53,9.9-2.58Z"/></svg>