<svg id="Layer_1" data-name="Layer 1" xmlns="http://www.w3.org/2000/svg" viewBox="0 0 96.44 130"><path d="M56.77,30.76c-14.7,4.54-30.88,8.85-45.61,12.57l-.07,0,.06,0s0,0,.1-.06A5.69,5.69,0,0,0,13,41.84c2.79-3.25,1.68-8.84-2.31-10.57,14.61,2.11,32.73,1.52,48.26,6.13,4,1.31,7.31,3.64,11.33,5.11,1,.39,2.91,1.19,3.86,1.6,8.58,3.49,14.38,11,19.2,18.42,13.37,22-19.17,38.46-35.74,44.67a59.51,59.51,0,0,1-8.2,2.36c-9.24,2.76-19.72,6.06-29.58,2.54-14-4.93-16.88-21-13.95-33.81a8.47,8.47,0,0,1,2-3.61,21,21,0,0,1,8.53-6.57c9.13-2.79,13.33,9.88,4.5,13.33A12.83,12.83,0,0,0,18.31,84l1.12-2.43-.05.25a29.92,29.92,0,0,0-.55,6c0,12.58,8.44,13.2,19.18,10.33,3.47-.93,7.54-2.32,11.42-3.14a93.64,93.64,0,0,0,16.72-7.28c6-3.49,12.25-7.24,15.48-13a3.91,3.91,0,0,0,.29-3.18,4.31,4.31,0,0,0-.46-.94,1.41,1.41,0,0,0-.14-.26l-.52-.77c-1-1.48-2.11-3.1-3.18-4.49-2.64-3.42-5.4-6.27-9.31-7.83-.87-.37-2.63-1.09-3.51-1.44a81.56,81.56,0,0,1-8.38-3.9,12.12,12.12,0,0,0-2-.84c-13.38-3.63-28-3.39-41.95-4.93-2.73-.34-6.38-.6-8.91-2.27A7.66,7.66,0,0,1,3.5,31a23.3,23.3,0,0,1,7.16-2.6c2.4-.56,9-2.26,11.43-2.91,10.14-2.72,20.35-5.63,30.34-8.78,9.47-2.58,13.63,10.84,4.34,14.06Z"/></svg>