<svg id="Layer_1" data-name="Layer 1" xmlns="http://www.w3.org/2000/svg" viewBox="0 0 165.8 130"><path d="M45.08,34.12a297.65,297.65,0,0,0,6.64,44.31c2.47,10.72,5.19,21.4,9.75,31.26,1.62,3.4,3.65,6.39,4.77,10a4.53,4.53,0,0,1-6.6,5.27c-3.87-2.19-6.5-6-8.6-9.74a95.36,95.36,0,0,1-5.32-11C38.33,86.05,34.33,66.8,30.58,47.64L28.36,36.09a8.44,8.44,0,1,1,16.72-2Z"/><path d="M3.08,20.36C16.71,11.57,32.25,5.57,48.58,4.51c3.43-.24,7.1,0,10.55.07,8.24.26,16.36.1,24.74,0A313.81,313.81,0,0,1,137.24,8l.64.09.71.13c3.52,1.09,7.06,2.3,10.67,3.07,4.87.94,9.71,2,14.6,2.77a2.43,2.43,0,0,1,.41,4.64c-6.88,2.43-14.22,1-21.3.86l-5.13-.19c-1.36,0-3.41-.38-4.8-.53A301.22,301.22,0,0,0,84.1,17c-9.53.29-19.42.66-29.08.41a70,70,0,0,0-27.69,5.74,91,91,0,0,0-16.22,8.71C3.34,37-4.49,26,3.08,20.36Z"/><path d="M45.08,34.12a297.65,297.65,0,0,0,6.64,44.31c2.47,10.72,5.19,21.4,9.75,31.26,1.62,3.4,3.65,6.39,4.77,10a4.53,4.53,0,0,1-6.6,5.27c-3.87-2.19-6.5-6-8.6-9.74a95.36,95.36,0,0,1-5.32-11C38.33,86.05,34.33,66.8,30.58,47.64L28.36,36.09a8.44,8.44,0,1,1,16.72-2Z"/><path d="M3.08,20.36C16.71,11.57,32.25,5.57,48.58,4.51c3.43-.24,7.1,0,10.55.07,8.24.26,16.36.1,24.74,0A313.81,313.81,0,0,1,137.24,8l.64.09.71.13c3.52,1.09,7.06,2.3,10.67,3.07,4.87.94,9.71,2,14.6,2.77a2.43,2.43,0,0,1,.41,4.64c-6.88,2.43-14.22,1-21.3.86l-5.13-.19c-1.36,0-3.41-.38-4.8-.53A301.22,301.22,0,0,0,84.1,17c-9.53.29-19.42.66-29.08.41a70,70,0,0,0-27.69,5.74,91,91,0,0,0-16.22,8.71C3.34,37-4.49,26,3.08,20.36Z"/></svg>