<svg id="Layer_1" data-name="Layer 1" xmlns="http://www.w3.org/2000/svg" viewBox="0 0 1546 215"><defs><style>.cls-1{fill:none;stroke:#000;stroke-linecap:round;stroke-linejoin:round;stroke-width:20px;}</style></defs><path d="M1415.47,80.05c.72,14.81,3.27,29.7,6.33,44.18,2.38,10.66,5.08,21.24,9.48,31.05,1.62,3.47,3.64,6.55,4.38,10.35a5.4,5.4,0,0,1-4,6.51c-3.79.82-6.9-2.41-9.2-4.91-15.32-20.7-21.6-59.61-26.91-85a10,10,0,1,1,19.89-2.22Z"/><path d="M21.33,166.23c-9.41-2.2-5.23-9.25-6.16-16-1.1-7.77-3.08-15.4-4.36-23.15-1.4-7.25-3.41-18.46-5-25.56A8.32,8.32,0,0,1,15.59,91,9.61,9.61,0,0,1,21,94.74c9.65,12.49,20.11,26.24,34.88,32,9.39,3.78,21.15.13,26.49-8.17,6.44-11,1.26-27.21-3.55-38.23-.59-1.28-1.2-2.44-1.86-3.6-.06-.13-.13-.24-.08-.23a5.54,5.54,0,0,0,2.27.81l4.19-1.45A4.41,4.41,0,0,0,84,75a3.19,3.19,0,0,0,.29-.54l.15-.35.07-.25a2.45,2.45,0,0,1,.07-.26s0,.21,0,.41a88.81,88.81,0,0,0,3,13c1.62,5.14,3.09,10.34,5.2,15.33a61,61,0,0,1,3,7.56c2.33,7.74,4.87,15.45,7.54,23.07,5.32,15,10.79,30.13,18.81,43.65a35.89,35.89,0,0,0,6.08,7.87,6,6,0,0,0,1.21.86,7.52,7.52,0,0,1,5.57,9.06,7.62,7.62,0,0,1-10.74,5c-11-4.36-18.31-20.12-23.3-30-8.46-17.87-14.8-36.17-20.37-55a50.46,50.46,0,0,1-1.57-8.23c-1.38-8.35-3.29-16.47-4.36-24.91-.34-3.38-1.11-6.86-.15-10.35a5.4,5.4,0,0,1,6.84-3.62c2.19.72,3.73,2.48,5.1,4.06A62.94,62.94,0,0,1,98,94.6c4.46,16.44.75,34.49-15,43.62a38,38,0,0,1-15.78,5.43c-25.25,2-44-19.56-57.88-37.41l-.9-1.11a1.44,1.44,0,0,0-.17-.2c.08.09.28.26.37.34,4.89,4.19,13.19.63,13.06-6.35a7.24,7.24,0,0,0-.17-1.4c.14.65.41,1.65.55,2.3,1.42,6.41,3.62,17.62,4.93,24.17.86,4.42,1.77,8.83,2.48,13.27s1.32,9,3,13.16c1.46,3.13,3.63,6.3,2.57,9.82-2.17,4.91-8.88,7.29-13.78,6Z"/><path class="cls-1" d="M137.64,102.36s2.9-10.52,1.69-15S164.55,162,164.55,162s-1.7-10.42,0-13.82"/><path d="M191.23,166.31c-.7-7.3-2.67-14.29-4.45-21.36l-5.35-21.11c-3.15-12.4-7.88-29.92-11.25-42.08-2.46-9.68,10.65-14.72,15.33-6,2.28,3.37,5.76,8.56,8,12.06l2,3a5.71,5.71,0,0,1,.5,1.79c10.8,18.79,24.12,37,40.29,51.38,6.7,5.73,13.88,10.77,22.11,13.83a11.11,11.11,0,0,0,2.6.56s.13,0,.11,0a.06.06,0,0,0-.08,0,2.56,2.56,0,0,0-1.44,1c.64-2.78,0-7.15-.69-10.68-1.88-9-5.19-18.08-8.59-26.76a556.06,556.06,0,0,0-24.83-52.7c-1.27-2.21-1.1-4.68-.65-7,.86-6.62,5.85-12.73,13.37-10.12,10.09,4.39,4.4,19-6,15.44a7.09,7.09,0,0,0,1.66.43c3.05.56,6.52-1.51,7.43-3.68a12.56,12.56,0,0,0-.32,1.76s-1-4.72-1-4.73a581.15,581.15,0,0,1,25.85,54.36c3.86,9.65,7.41,19.15,9.68,29.52,1.42,7,2.59,15.1-.7,22-4.8,9.43-15.23,9.8-24,6.18-19.24-7.7-34.79-22.86-47.69-38.45a280.12,280.12,0,0,1-22.07-31.24,7.61,7.61,0,0,0-1.09-1.57,6.16,6.16,0,0,1-1.4-1.39l-1.75-3.39a116.37,116.37,0,0,1-6.12-14.23l15.44-5.77c6.11,23.39,13.7,50.18,20.52,73.41a89.15,89.15,0,0,0,3.86,10.24,10.15,10.15,0,1,1-19.31,5.22Z"/><path d="M600.74,171.58c-.7-7.3-2.67-14.28-4.45-21.35l-5.35-21.12c-3.16-12.42-7.88-29.89-11.25-42.07-2.46-9.67,10.62-14.72,15.31-6,.61,1,1.4,2,2.1,3.11,2.28,3.35,5.69,8.57,7.92,12a5.76,5.76,0,0,1,.49,1.8,7.11,7.11,0,0,0,.82,1.6A263.13,263.13,0,0,0,626.59,129c10.88,13.32,22.94,25.94,38.61,33.07a19.22,19.22,0,0,0,5.35,1.67,2.88,2.88,0,0,0-1.26.8c-.24.28-.33.58-.17.15.65-2.68,0-7.35-.69-10.6-1.89-9-5.2-18.08-8.61-26.76A554.82,554.82,0,0,0,635,74.62a6,6,0,0,1-.84-3.26,29.13,29.13,0,0,1,.22-3.09c.43-5.71,5.18-10.58,11.26-8.13a7,7,0,0,1,4,9,7.08,7.08,0,0,1-8.33,4.22A6.39,6.39,0,0,0,647,72.19a7.17,7.17,0,0,0,2-2.52c.49-.93.45-1.93,1-1.16l.21.27c.06.06.16.24.19.16l-.82-2.22a578.73,578.73,0,0,1,25.86,54.36c3.86,9.65,7.41,19.16,9.68,29.52,1.22,6.05,2.21,12.39.53,18.74-2.09,8.21-9.86,12.7-17.91,11.4-7.41-1.16-14-4.8-20.34-8.54-24.31-15.56-41.72-39.14-56.78-63.13a7.61,7.61,0,0,0-1.09-1.57,6.32,6.32,0,0,1-1.39-1.39,125.7,125.7,0,0,1-7.87-17.62l15.43-5.77q2.75,10.55,5.64,21c2.88,10.46,8.8,31.5,11.84,41.92,2,7,3.83,14,6.91,20.69a10.14,10.14,0,1,1-19.31,5.21Z"/><path d="M387.65,73.35c8.8,29,14.76,58.91,21.45,88.38.1.39.24.86.22.86-.07-.16-.28-.54-.35-.68a9.71,9.71,0,0,0-11.54-4.55c-.71.32-.51.44.11.36,5.68-.87,13.49.94,13.35,8.16-.15,6.84-5.81,12.11-12.73,10.71a10.53,10.53,0,0,1-7.53-6.71c-2.11-5.56-3.62-11.08-5.22-16.56-7-24.91-13.07-50-17.25-75.5-1.53-12.28,15.52-16.18,19.49-4.47Z"/><path d="M452.1,75c3.06,14,4.21,28.47,6.63,42.58,1.72,10.21,3.35,20.49,6.94,29.93.66,1.86,2.17,5.2,2.68,7.08l.86,4.29a5.84,5.84,0,0,1-4.57,6.88c-2.75.61-5.4-1.26-7.36-2.79-6-4.91-9-12.66-11.58-19.49-5.76-16.25-8.71-33.2-10.41-50.27a120,120,0,0,1-.39-17A8.7,8.7,0,0,1,452.1,75Z"/><path d="M384.4,114.24c8.08-2.09,16.45-1.54,24.71-1.74,12.06,0,24.13.2,36.19,0s24.24-.53,36.27,1.66a4.7,4.7,0,0,1,.41,9.14c-9.84,2.78-19.93,3.6-29.94,4.5-14,1-28.06,2.54-42,3.82-7,.51-14,1.5-21,1.08-1.83,0-3.8-1-5.44-1.61a8.92,8.92,0,0,1,.83-16.86Z"/><path d="M507.08,83.55c.2.43,28.22,77.37,28.38,77.74,3.1,9.54-10.34,14.61-14.3,5.34-7.63-18.74-14.93-36.94-20.59-56.53A77.36,77.36,0,0,1,498,97.9c-.54-4.06.22-9.42,4.14-12.1a13.82,13.82,0,0,0,2.51-2.66c2-2.74,5.3-7.5,8.9-10,10-7.06,22.18-4.55,30.49,3.61,1.69,1.72,3.56,3.48,4.46,5.79,2.16,5.22,6.46,15.72,8.55,21,3.36,8.8,7.33,17.3,10.27,26.19a91.41,91.41,0,0,0,4.47,11.18s.06.12,0,.08a2.25,2.25,0,0,0-.36-.4c4,4.36,7.31,10.3,10.87,15.15,2.49,2.82,5.39,8.53.32,10.56-4.69,1.47-9.62-1.83-13.12-4.56a41.16,41.16,0,0,1-4.65-4.57c-1.83-2.09-2.86-3.87-4.56-5.54a14.85,14.85,0,0,1-1.65-2,76.15,76.15,0,0,1-4.43-8c-1.72-3.52-3.65-6.88-5.23-10.44-5.69-13.92-11.13-28.67-15.86-43l1,1.9c.09.11,0,0,0-.06-1.59-2-4.39-4.36-6.76-4.75a6.16,6.16,0,0,0-5.89,2.29c-1.88,2-4.78,6.6-7.42,9a27,27,0,0,1-2.68,2.22,6.21,6.21,0,0,0,2.37-3.19,1.79,1.79,0,0,0,.08-.43v.07c.08,3.54,1.1,7.07,2,10.67,5.13,18.39,12.36,37,19.45,54.85,0,0-14.16,5.74-14.16,5.75L488.5,91a10,10,0,1,1,18.58-7.4Z"/><path d="M508,113l60.7-10c7.44-1.06,9.86,9.43,2.73,11.75l-58.91,17.75A10,10,0,1,1,508,113Z"/><path d="M542.92,48c-8,1.78-16.28,3-24.42,4.07a30.69,30.69,0,0,1-5.92.4c-3.28-.23-7-.36-10.11-2.31a19,19,0,0,1-6.71-8.28c-2.72-6.7,2.71-15,10.06-14.64.18-.07,1.43-.22,1.73-.29,5.55-.81,11.09-1.66,16.93-.17a33.28,33.28,0,0,1,4.95,1.95,39.21,39.21,0,0,1,7.5,4.81,3.46,3.46,0,0,1,1.28,3,8.9,8.9,0,0,1-4.46,8.08l-7.51,4.32a1.91,1.91,0,0,1-2.36-.27l-1.48-1.39c-1.22-1.13-2.27-2.12-3.4-3.12A16.38,16.38,0,0,1,517.7,43c-1.61-1.32-4.67-1.41-7-1.65l-5.58-.27H505c2.31.14,4.2-1.78,3.38-4.07-.44-.92-.31-1.46.4-1.94a1.42,1.42,0,0,1,1.08,0,17.09,17.09,0,0,0,3.2.31,30.61,30.61,0,0,0,3.82-.35c8-1,16.12-1.76,24.18-2,9.19,0,10.73,12.82,1.87,15Z"/><path d="M717.11,68.22c4.76,23.24,9.77,46.68,15.95,69.57,1.83,6.45,3.77,13.63,6.52,19.29a3.52,3.52,0,0,0-.66-.46,6.16,6.16,0,0,1,2,8.5,6.26,6.26,0,0,1-9.57,1.17c-2.14-1.86-3.47-4.44-4.68-6.77-6.2-13.05-10.42-26.78-14.94-40.37-4.94-15.37-9.56-30.7-14-46.23a10,10,0,1,1,19.44-4.7Z"/><path d="M694.07,102.23A38.4,38.4,0,0,1,690,96c-3-5.09-6.15-10.33-2.94-16.54a11.27,11.27,0,0,1,4.87-4.72c2.69-1.41,5.45-2.76,8.27-3.93,11.13-4.6,23.79-7.86,36.15-3.72a111,111,0,0,1,10.09,4.69c10.85,5.56,21.89,11.93,29.87,21.7,4.81,6.07,8,13.12,10.6,20.13,1.71,5.06,3.48,10.27,3.68,15.73-.6,11-7.52,24.4-17.27,30-3.59,2-6.13,4.09-9.74,6.6-8.24,5.92-19.25,8.29-29,8.73a118.92,118.92,0,0,1-14.5-.1,7.64,7.64,0,0,1-2.74-.82c-9.66-4.74-8.86-17.76-2.74-25a18.78,18.78,0,0,1,7.13-5.46,7,7,0,1,1,5.18,13l.18-.08c.07,0,0,0,0,0l-.19.12c-1.51.83-2.9,3.84-2.62,5.25a.74.74,0,0,0-.19-.38c-.44-.66-2.07-.74-2.76-.93,9.63.28,20.25-.08,28.94-4.13,2.93-1.19,7.16-4.82,9.79-6.7,1.83-1.38,3.88-2.66,5.85-3.88a18.8,18.8,0,0,0,5.6-7.14,26.74,26.74,0,0,0,2.77-8.93c-.1-.54-.18-1-.32-1.66A66,66,0,0,0,766,109c-6.29-10-17.43-14.76-27.9-19.66-1.94-.86-3.9-1.7-5.9-2.53a15.34,15.34,0,0,0-4-1.28c-9.28-1-18.77,3-27.08,7,1.53-.8,4.09-3.28,4.35-6,0-.47-.08-.35-.21-.08-1.81,4.26-2.37,9.33-3.58,14a4.36,4.36,0,0,1-7.58,1.74Z"/><path d="M858.7,88.88c-14.46,4.36-29.11,8.51-43.79,12-.34.09-1.58.42-1.68.47a7.46,7.46,0,0,0,1.95-1.3c4.85-4.3,3.77-12.67-2.12-15.48a5.17,5.17,0,0,0-.83-.32c14.6,2,29,1.72,43.86,5a38.54,38.54,0,0,1,9,3,67.54,67.54,0,0,0,7.3,3.44c1,.39,2.94,1.22,3.91,1.63,6.32,2.57,11.87,7.61,15.9,13.07,1.55,2,3,4.2,4.42,6.31C908,135,890,150.19,875.37,158c-7.73,4.11-15.51,7.72-24.2,9.63-5.72,1.63-11,3.38-17.13,3.95-21,2.15-32.65-13.15-30.37-33.06.39-2.84.57-6.17,2.36-8.52,2.87-3.74,6-6.84,10.62-8.65,12.05-3.84,18.19,13.12,6.51,17.89.32-.11.35-.16.27-.11a9.86,9.86,0,0,0-1.69,1.67l-.18.22s-.14.18-.07.08l1.52-3.3c-.83,4.76-1.48,13.4,4.38,14.53,7.09,1.29,15-2.66,22-4.06,9.13-2.79,26.8-10.92,31.12-19.32.13-.21.08-.32.14-.44s0-.09,0-.13a.12.12,0,0,1,0-.08s0,0,0,0,0,0,0,0,0-.07-.07-.17a.3.3,0,0,1,0-.14,63.75,63.75,0,0,0-6-8.1c-2.94-3.16-4.15-3.78-9.7-6a95.9,95.9,0,0,1-9.21-4.29c-5.79-2-11.94-2.47-18.53-3.21-5.12-.49-10.34-.86-15.68-1.25-4.9-.45-9.82-.54-14.88-1.84a15,15,0,0,1-2.23-.86,10.29,10.29,0,0,1-1.67-17.63A18.46,18.46,0,0,1,809,82c1.38-.36,4.56-1.15,6-1.5,12.56-3.21,25.43-6.81,37.75-10.72,12.93-3.63,18.68,14.68,6,19.08Z"/><path class="cls-1" d="M921.45,88s14.15,72.7,27.25,87.93"/><path class="cls-1" d="M1013.82,92.49s-71.69,25.28-74.61,34-3.35,12.79-3.35,12.79,4.43,6.75,10.27,6.78,36.3.89,36.3.89l80.27,5.31"/><path d="M1084,93.94a37.3,37.3,0,0,0,3.89,11.14,38.23,38.23,0,0,1,1.95,3.53,77,77,0,0,1,2.17,7.54c3.35,12.32,6.57,25.26,10.35,37.35a62.77,62.77,0,0,0,2.57,6.85.49.49,0,0,0-.23-.2l.13.15.22.27.14.17s.09.08-.38-.28a7.56,7.56,0,0,0-2.81-1.29c-1.31-.89-8.31.57-9.1,4.73-1.14,5.28-.32,2.84-.38,4.63a6.13,6.13,0,0,0,.27.93,4.41,4.41,0,0,0,.44.92,56.9,56.9,0,0,0-9.86-11.94c-.15-.15-.44-.35,0-.26,0,0,.07,0,0,0l-.1,0c-3.06-1.32-6.23-2.13-9.55-3.22-5-1.55-10.13-5.06-12.21-10.18-.19-.3-3.4-7.6-3.7-8.17-2.8-6.29-5.79-12.57-7.08-19.58a21.74,21.74,0,0,1-.19-4.77c.35-3.8,3.29-7.67,5.5-10.19a103.51,103.51,0,0,1,16.34-14.25c6.17-4.31,13.25-8.75,20.82-11.22a20.22,20.22,0,0,1,8.34-1,.9.9,0,0,1,.4,0l.5,0c6-.67,11.15-2.64,18.68-3.6,6.23-.84,13.66-.51,19.72,2s12.37,6.29,15.45,12.43c1.94,3.67,2.39,9.06.37,13l.35-.79c-3.06,7.1-7.71,13.4-14.6,17.52a27.08,27.08,0,0,1-7.16,2.91c-7.09,1.59-15.06,3.24-22,4.91-5.72,1.44-11.15,2.68-16.19,4.83a75.84,75.84,0,0,0-6.77,4.26c-.68.47-1.39,1.17-1.32,1.07,1.7-2.67.71-6.26-1.33-8.48a6.1,6.1,0,0,0-1.16-1c4.25,2,9.56,3.11,14.32,4.3,3.46.83,8.67,1.88,11.5,2.44,19,2.37,39.12,4.87,58.5,5.15,3.9,0,7.45,0,11.14-.84,7.9-2.23,14.54-1.66,21.32-2.88,2.74-.51,5.41-1.21,8.16-2a42.3,42.3,0,0,0,4.49-1.51c2-.84,4-1.91,7.23-1.77a4.5,4.5,0,0,1,4.59,4.68c-.27,4-2.85,6.63-5.46,9.28a29.71,29.71,0,0,1-13.16,8.06c-6.82,2.13-15.78,1.72-21.51,3.47a44.25,44.25,0,0,1-8.65,1.62,180.13,180.13,0,0,1-23.1.21c-15.42-.66-30.7-2-46-3.81-4.42-.7-9-1.64-13.43-2.57-6.92-1.66-13.82-2.88-20.34-6.4a14.47,14.47,0,0,1-4.11-3.53,13.27,13.27,0,0,1-1.57-12.58,17.3,17.3,0,0,1,3.47-5.56c3.37-3.68,7.36-6,11-8.3a42.5,42.5,0,0,1,8.58-4c12.16-4,24.08-6.23,36.33-9a7,7,0,0,0,2.48-1c2.5-1.7,4.63-5,6-7.93a6.12,6.12,0,0,0-.41,5.35c.27.52.32.37,0,.08a1.77,1.77,0,0,0-.3-.25,17,17,0,0,0-2.48-1.56c-5.64-3.13-11.94-1.73-18.2-.45-5.23,1.12-11.72,2.86-17.39,2.22l-.44,0a3.71,3.71,0,0,0,.8,0c-5.43,1.54-11,5.16-16.37,8.45-5.66,3.63-11.44,7.54-16.09,12.07l0,0s0,0,0,0a5.77,5.77,0,0,0,.42-1.73h0s0,0-.05,0a12.22,12.22,0,0,0,.15,2.75c1.13,7.34,4.25,15.87,6.62,23a4.06,4.06,0,0,0,1.42,1.47c3,2.06,6.88,2.61,10.54,3.19.39.07.88.16,1.25.26a21.25,21.25,0,0,1,7.64,4.56,83.91,83.91,0,0,1,9.15,9.42c1.5,1.89,3,3.43,3.61,6-.06,1.82.79-.57-.38,4.74-.79,4.22-7.85,5.67-9.19,4.78a8.31,8.31,0,0,1-2.12-.83,12.77,12.77,0,0,1-2.68-2.11,15.6,15.6,0,0,1-1.75-2,54.26,54.26,0,0,1-5.3-10.22,381.22,381.22,0,0,1-13.21-38c-.53-2.26-1.82-5.39-2.07-7.69a34.55,34.55,0,0,1-.14-4.08,41.5,41.5,0,0,0-2.24-11.77A7.83,7.83,0,1,1,1084,93.94Z"/><path d="M1219.17,128a5.38,5.38,0,0,0-.35.67h0l0-.1.08-.27c.29-1,.88-3.06,1.18-4.13,3.11-10.78,6.28-22.44,7.37-33.4.2-2.37.36-6.75-.37-8a2.9,2.9,0,0,0,.19.29l.07.08h0s.09.25,1,.71a5.88,5.88,0,0,0,7.33-2.47c.12-.23.11-.17.11-.06a39.1,39.1,0,0,0,.76,8.9c2.24,12.25,6.56,24.28,11.66,35.6,2.65,5.91,5.5,12,10.34,16.19,5.29,4.91,10.62,10.2,16.3,14.53.17.1.36.21.28.12a4,4,0,0,0-1.46-.69,8.14,8.14,0,0,0-2.14-.31,10,10,0,1,1,1.53,19.74c-.54,0-1.26,0-1.8,0-4.52-.16-8-3-10.71-5.75-1.19-1.09-7.88-7.91-9.19-9.21-2.08-2.05-5.25-5.23-7.39-7.3a74.31,74.31,0,0,1-7.62-9.32c-11.14-15.92-15.55-38.42-15.54-57.62.17-4,.31-8.7,2.84-12.36A8.42,8.42,0,0,1,1233.89,71c8.26,4.08,7.44,14.07,6.32,21.38a151.68,151.68,0,0,1-5,20.53c-2,6.38-4.09,12.75-6.69,18.91a12.49,12.49,0,0,1-.71,1.48c-3.64,5.58-11.92.54-8.61-5.27Z"/><path d="M1296.45,78.61c3.57,14.29,7.8,28.69,12.67,42.61,4.75,13.51,10.51,27.47,18.41,39.14a5.27,5.27,0,0,1-1.19,7.58c-4.87,3.06-7.93-2.12-10.92-5.18a122,122,0,0,1-10-14.88c-11.62-20.29-20.41-41.71-28.19-63.69a10,10,0,1,1,19.21-5.58Z"/><path d="M1275.76,83c6.37-7.94,16.08-13.1,25.94-14.92a54.35,54.35,0,0,1,13.66-.64c12.37.83,25.19.74,37,5.47,3,1.34,7.76,3.14,10.73,4.48A39.28,39.28,0,0,0,1373.45,81a3.46,3.46,0,0,1,.44,6.69,19.29,19.29,0,0,1-7.5.61c-6.06-.37-12.19-2.27-18-3.92-10.67-2.75-22-1.1-33-.69-8.75.16-18,3.45-23.21,10.71l-.06.11,0,0,.09-.12c-8,10.58-23.57-.22-16.42-11.42Z"/><path d="M1289.5,100.91c14.71-1.47,29.25-2.93,44.06-3.43,6.49-.08,12.87.5,19.18.9,10.21.76,20.4,1,30.62,1.05,2.06.16,4.14.5,6.2.55l-.78.16c2.14-.5,4.39-1.06,6.5-1.72a36.94,36.94,0,0,0,6.09-2.36,2.56,2.56,0,0,1,2.59,4.42,109.58,109.58,0,0,1-13,6.57c-2.31.38-4.54,1.25-6.84,1.75-6.24,1.08-12.56,1.56-18.85,2.12-10.38.91-20.6,1-30.64,2.07-5.9.81-11.93,2-17.87,3.06-8.08,1.49-16.21,3.09-24.28,4.64a10,10,0,1,1-3-19.78Z"/><path d="M1370.16,64c14.12-9.06,30.13-15.16,47.06-16.2,3.5-.23,7.26,0,10.79.11,8.19.3,16.23.17,24.63.14a316,316,0,0,1,53.8,3.66,8.14,8.14,0,0,1,2.55.66,73.63,73.63,0,0,0,14,4.25c2.26.55,4.54,1.21,6.75,1.8a18.49,18.49,0,0,1,3.55,1.36,3.32,3.32,0,0,1,0,6c-6.94,3-14.6,1.71-21.91,1.87-2.33,0-4.69.22-7,0-4.14-.5-8.3-1-12.52-1.33-22.54-2.19-45.4.22-68.2-.11-9.14-.07-17.92,2.1-26.5,5.67a88.31,88.31,0,0,0-15.51,8.41A10,10,0,1,1,1370.16,64Z"/></svg>