<svg id="Layer_1" data-name="Layer 1" xmlns="http://www.w3.org/2000/svg" viewBox="0 0 1546 215"><defs><style>.cls-1,.cls-2{fill:none;stroke:#000;stroke-linecap:round;stroke-linejoin:round;}.cls-1{stroke-width:15px;}.cls-2{stroke-width:14px;}</style></defs><path d="M1413.9,75a296.27,296.27,0,0,0,6.63,44.32c2.47,10.72,5.19,21.4,9.76,31.26,1.61,3.4,3.64,6.39,4.76,10a4.52,4.52,0,0,1-6.6,5.27c-3.87-2.18-6.49-6-8.6-9.73a99.63,99.63,0,0,1-5.32-11c-7.39-18.19-11.39-37.43-15.14-56.6l-2.21-11.54a8.44,8.44,0,1,1,16.72-2Z"/><path d="M22.85,160.67c-5.48-1.93-5-8-4.93-12.78-.71-9-3.26-17.66-4.68-26.53C11.78,113.81,9.73,102.5,8,95.11a5.85,5.85,0,0,1,7-7c2.53.61,3.8,2.56,5.23,4.36C31.11,106.57,46.94,126.36,66,125.25c7.1-.74,14.56-4.69,18.28-10.81,6.88-11.94,1.55-28.54-4-40.26a33,33,0,0,0-2.39-4.11s0,0,.09,0a2.61,2.61,0,0,0,.3.15,3.07,3.07,0,0,0,1,.26l2.93-1A2.79,2.79,0,0,0,83,68.24c0-.1,0-.09,0,0a16.32,16.32,0,0,0,.22,2.32,175.1,175.1,0,0,0,7.53,27.1c2.14,5,3.55,10.25,5.2,15.43,6.72,20.28,13.51,41.07,24.3,59.48,2.36,3.58,4.78,7.69,8.44,9.63,6.4,2.51,3.12,12-3.55,9.87-10.23-4-17.4-19.6-22.05-28.89-8.31-17.74-14.62-36-20.18-54.68-1.52-5.33-2.16-10.9-3.5-16.28a207.31,207.31,0,0,1-3.61-20.8,13.94,13.94,0,0,1,.23-5.25,3.83,3.83,0,0,1,5.41-2.42c2.66,1.42,4.22,4.05,5.87,6.37A65.86,65.86,0,0,1,96,89.79c4.1,15.59.84,32.57-14.08,41.19A36.19,36.19,0,0,1,67,136.06c-24.18,1.87-42.44-19.43-55.74-36.59l-.94-1.18L10.06,98l.07.07.12.11.28.22a5.61,5.61,0,0,0,8.76-4.65,4,4,0,0,0-.1-.86c0,.21.27,1.08.32,1.32,2.63,12.1,5.38,26.11,7.59,38.27.83,4.43,1.41,8.9,2.86,13.19a36.82,36.82,0,0,1,2.24,6.45c1.57,5.4-4.05,10.77-9.35,8.59Z"/><path class="cls-1" d="M137.64,97.08s2.9-10.51,1.69-15,25.22,74.68,25.22,74.68-1.7-10.43,0-13.82"/><path d="M192.72,160.63c-.89-7.28-2.85-14.27-4.64-21.31-5.17-20.47-11.07-42.94-16.67-63.17-2.08-8.29,9.23-12.47,13.06-4.88,2,3,5.86,9,7.79,12l2,3a6.71,6.71,0,0,1,.56,1.76c11,18.9,24.33,37.22,40.69,51.64a78.87,78.87,0,0,0,21.23,13.55,13.31,13.31,0,0,0,4.57,1.11.06.06,0,0,1,.07,0,1.31,1.31,0,0,0-.61.4s-.05.13-.06.1a2.17,2.17,0,0,0,.17-.46c.8-3.66,0-7.37-.67-11.19a119.92,119.92,0,0,0-3.71-13.46c-4.57-13.75-10.47-27.05-16.68-40.22-4.19-8.79-8.6-17.6-13.15-26.12-1.14-1.94-.91-4.17-.52-6.18a14.52,14.52,0,0,1,2.58-6.58c5-6.51,15.89-1.89,13.07,6.49a7,7,0,0,1-9.06,4A6.1,6.1,0,0,0,240,58.86c.23-.43.12-.28.08-.07s-.14.56-.2.92-.14.86-.15,1l-.82-4C250.7,79,261.69,101.45,270,125.25c3.34,10.58,9.27,27.51,2.76,37.79a13.74,13.74,0,0,1-11.47,6c-4.18.1-8.17-1.24-11.94-2.87-8.61-3.61-16.59-9.12-23.66-15.06-15.75-13.48-28.23-29.78-39.4-46.94-1.78-2.62-3.27-5.44-5.1-8a6.59,6.59,0,0,1-1.33-1.42c-1.71-3.24-3.61-6.88-5.09-10.23-1.05-2.35-2-4.63-2.94-7.18l13-4.88c5.3,20.28,11.63,42.7,17.41,63,2,7,3.82,14,6.72,20.75a8.54,8.54,0,1,1-16.33,4.41Z"/><path d="M602.23,165.91c-.89-7.28-2.85-14.27-4.64-21.31-5.18-20.48-11.07-42.93-16.67-63.17-2.08-8.3,9.23-12.47,13.05-4.88,2.88,4.35,6.94,10.72,9.74,15.08a6.27,6.27,0,0,1,.57,1.76,7.87,7.87,0,0,0,.84,1.6,265.48,265.48,0,0,0,20.42,29.58c10.31,12.64,21.72,24.51,36.19,32,2.8,1.3,6.09,3.12,9.12,3.14a1.75,1.75,0,0,0-.62.42c-.07.09-.08.13-.05.08a3,3,0,0,0,.16-.44c.75-3,0-7.73-.66-11.21A122,122,0,0,0,666,135.09c-4.57-13.76-10.46-27.06-16.69-40.23-4.18-8.79-8.6-17.61-13.15-26.13a7.05,7.05,0,0,1-.69-1.87c-.28-4.6.73-10.72,6.39-11.51a6.61,6.61,0,0,1,3.43.51,5.88,5.88,0,0,1,3.36,7.6A6,6,0,0,1,641.54,67a5.52,5.52,0,0,0,6.36-3c.42-.86.38-1.47.85-.61l.19.32c.06.08.14.27.18.23l-.7-1.88a579.51,579.51,0,0,1,25.78,54.23c3.84,9.58,7.38,19.05,9.63,29.3,1.35,6.81,2.58,14.43-.59,21.16-4.32,8.82-14.6,8.9-22.43,5.56-19.07-7.61-34.32-22.68-47.11-38.12a279.46,279.46,0,0,1-21.9-31.12,9.26,9.26,0,0,0-1.07-1.57,7.16,7.16,0,0,1-1.33-1.43,135.15,135.15,0,0,1-8-17.4s13-4.88,13-4.88c5.3,20.28,11.63,42.69,17.41,63,2,7,3.82,14,6.72,20.74a8.55,8.55,0,1,1-16.33,4.42Z"/><path d="M384.73,68.74c8,28.36,14.54,59.94,21.48,88.6,0,0,.33,1.11.29,1.06a5.38,5.38,0,0,0-.6-1c-1.52-2.3-5.19-3.49-7.45-2.49-.5.26.19.07.61,0a17.27,17.27,0,0,1,6.95-.81,4.49,4.49,0,0,1,4,4.92,11.41,11.41,0,0,1-1.51,4.2c-1.65,2.83-4.62,5.3-8.11,5.38a6.25,6.25,0,0,1-1.61-.16,7.19,7.19,0,0,1-2.69-1.22,6.64,6.64,0,0,1-1.2-1.13,6.56,6.56,0,0,1-.77-1.08,27.77,27.77,0,0,1-2-5.1,891.9,891.9,0,0,1-21.09-88c-1.29-8.72,11-11.57,13.65-3.14Z"/><path d="M450.48,69.81c3.89,21,5.29,42.91,10.67,63.55a78.61,78.61,0,0,0,6.5,16.93l1,2.5a5,5,0,0,1-2.86,6.43c-3.88,1.42-7.68-2.46-10-5-4.1-4.85-6.31-10.86-8.42-16.51A184,184,0,0,1,440.23,110a246.34,246.34,0,0,1-3.52-27.86c-.21-3.75-.33-7.44-.19-11.29a7,7,0,0,1,14-1Z"/><path d="M384.65,111a62.68,62.68,0,0,1,12.51-1.33c12-.41,24.11-.36,36.17-.48,16.14,0,32.17-1.32,48.28.72a3.59,3.59,0,0,1,.32,7c-11.92,2.66-23.91,3.31-36,4.2-8,.54-27.74,2.28-36,3-6,.43-12,1-18,1.13a24.26,24.26,0,0,1-7.26-.77,6.94,6.94,0,0,1,0-13.49Z"/><path d="M504.29,79.39c.08.19,28.91,77.09,29,77.27,2.26,6.63-7.18,10.3-10,3.83-3.8-9.23-7.42-18.43-10.89-27.77-4.6-13.08-10-26.32-12-40.32-.4-3.33-.05-7.69,3.14-9.92.12-.12.55-.43.69-.55,3.7-3.54,6-8.76,10.75-12.05,10.71-7.48,23.29-2.72,30.53,7a5,5,0,0,1,.7,1.33c4.93,12.38,11.89,29.88,16.83,42,2.08,5.52,4,11.21,6.61,16.39l.2.36.07.14a.54.54,0,0,0-.15-.15s-.06,0,0,0l.32.35.62.69c2.8,3.34,4.94,6.88,7.46,10.16,1,1.3,2,2.52,3.13,3.75a17.88,17.88,0,0,1,3.56,4.36,2.64,2.64,0,0,1-1.85,3.85c-4.65.58-8.62-2.41-11.95-5.13-3.62-3-6.07-7-9.08-10.3a15.48,15.48,0,0,1-1.9-2.51c-8.79-15.48-14.69-32.66-20.85-49.28-1.27-3.59-2.56-7.16-3.78-10.78l.7,1.33C532,78,525.05,74.78,519.7,80.75c-2.3,2.55-5.11,7.16-8.19,9.68-.3.25-1.21.94-1.51,1.17a3.86,3.86,0,0,0,1.46-1.89c0-.25,0,.07,0,.39.12,3.76,1.16,7.45,2.1,11.2,2.51,9.2,5.74,18.48,9.06,27.67s6.9,18.38,10.57,27.43l-9.92,4-32-75.86c-3.31-8.85,9.32-13.91,13-5.17Z"/><path d="M508.69,110.59l60.43-11.18a4.23,4.23,0,0,1,1.91,8.23l-59.18,16.59a7,7,0,1,1-3.16-13.64Z"/><path d="M542.41,38.63C534,40,524.07,41.37,515.62,42.44c-6.21.44-13.64-.48-16.43-7.18-1.69-4.1,1.38-9.27,5.86-9.56,1.32,0,3.71-.27,5.17-.4a38.2,38.2,0,0,1,11,.27c4,1,7,2.93,10.12,5.16,1.41,1.21,3,1.93,3.64,3.9a4.43,4.43,0,0,1-3,5.54,6.24,6.24,0,0,1-2.51.12c-1.67-.17-2.53-1.6-3.76-2.49A30.23,30.23,0,0,0,519,33.17c-2.48-1-5.66-1.08-8.49-1.13-1.7,0-3.37.05-5.2,0h-.11a.14.14,0,0,0,.09,0,.26.26,0,0,0,.15,0c-.2,0-.49.41-.52.62-.11.51.11.71.71,1,1.9.45,6.38,1.51,9.26,1.08l7.26-.88c5.69-.63,13.76-1.54,19.4-2a3.46,3.46,0,0,1,.85,6.85Z"/><path d="M714.19,63.65c3.34,15.52,6.9,31.11,10.73,46.52,1.92,7.72,3.92,15.41,6.11,23,1.92,6.39,3.69,12.93,6.58,18.87.23.44.41.73.62,1.06,0,0,0,0,0,0a4.42,4.42,0,0,1,1.11,5.8,4.31,4.31,0,0,1-5.95,1.36,9.16,9.16,0,0,1-2.25-2.13c-2.34-3.23-3.78-6.88-5.29-10.43-4.54-11.31-8.17-22.88-11.79-34.44-4.75-15.38-9.18-30.75-13.43-46.28-2.14-9.28,11.22-12.58,13.6-3.29Z"/><path d="M695.2,96.69A45.8,45.8,0,0,1,692,90.38c-1.55-3.69-3.78-7.4-3.18-11.85a8.87,8.87,0,0,1,.92-2.94,7.58,7.58,0,0,1,2.68-2.94,90.16,90.16,0,0,1,9-4.32c10.53-4.3,22.48-7.51,34-3.69,3.36,1.25,6.56,2.94,9.8,4.49,10.56,5.34,21.33,11.38,29.1,20.76,4.64,5.8,7.75,12.56,10.27,19.33a62.38,62.38,0,0,1,3.51,13.52,24.56,24.56,0,0,1-1.55,9.6,42.17,42.17,0,0,1-7.22,13.48,26.51,26.51,0,0,1-6.21,5.61c-1.83,1-3.67,2.18-5.4,3.4-3.65,2.6-7.67,5.8-12,7.68-6.69,3.06-14.2,4.24-21.25,4.65a114.75,114.75,0,0,1-14,0,4.69,4.69,0,0,1-1.61-.39c-6.05-2.45-7.91-9.72-6-15.41a17.78,17.78,0,0,1,9.67-11.43c6.07-2.21,9.54,6.5,3.62,9.07a8.37,8.37,0,0,0-3.74,5.06,5.41,5.41,0,0,0-.21,2.77,1,1,0,0,0,.41.59l.07.05h0l0,0h0l-.17-.07-1.28-.26c10,.34,20.94,0,30.06-4.21,5.26-2.48,9.53-6.91,14.7-9.9,3.32-1.81,5.7-4.83,7.71-8.79a28.4,28.4,0,0,0,3.09-10c-.84-5.68-3.13-11.26-5.57-16.46a39,39,0,0,0-10.35-13.84c-8-6.49-17.87-10.89-27.38-15C723.46,74,709,80,699.5,84.7l-.12.06s-.09,0,0,0a6.38,6.38,0,0,0,2.68-2.61,4.1,4.1,0,0,0,.45-1.36c0-.2-.1.12-.17.44l-.24,1.24c-1,4-1,8.71-1.58,13a2.89,2.89,0,0,1-5.31,1.22Z"/><path d="M857.91,81.08C843.2,85.63,827,89.93,812.29,93.66l-.06,0,0,0,.11-.06a6.11,6.11,0,0,0,1.7-1.43c2.78-3.25,1.67-8.84-2.32-10.57,14.61,2.11,32.73,1.51,48.27,6.13,4,1.3,7.31,3.63,11.33,5.11,1,.38,2.9,1.19,3.85,1.6,8.59,3.49,14.38,11,19.21,18.42,10.46,16.62-7.19,30.6-20.29,37.62-7.54,4-15.2,7.56-23.65,9.41-5.2,1.49-10.91,3.38-16.7,3.88-11.56,1.39-22.84-3.94-26.36-15.59-2-6.64-1.82-13-.47-19.56.39-1.87,1.72-3.24,2.9-4.62a19.89,19.89,0,0,1,7.65-5.57c8.85-2.85,13.38,9.68,4.79,13.16a11.61,11.61,0,0,0-2.85,2.76l1.11-2.43c-2.5,15.34,2.86,20.82,18.59,16.53,3.47-.92,7.54-2.31,11.41-3.14A93.38,93.38,0,0,0,867.29,138c6-3.49,12.24-7.25,15.47-13a3.92,3.92,0,0,0,.3-3.18,5.19,5.19,0,0,0-.46-.95,1.4,1.4,0,0,0-.15-.25l-.52-.77c-1-1.49-2.11-3.1-3.17-4.49-2.64-3.42-5.41-6.27-9.32-7.83-.86-.37-2.62-1.1-3.5-1.45a81.6,81.6,0,0,1-8.38-3.89,12.25,12.25,0,0,0-2-.85c-13.38-3.62-28-3.39-41.94-4.92-2.74-.34-6.38-.61-8.92-2.27a7.67,7.67,0,0,1,0-12.89,22.8,22.8,0,0,1,7.16-2.6c2.39-.57,9-2.27,11.42-2.91,10.15-2.72,20.36-5.63,30.35-8.78,9.46-2.58,13.62,10.84,4.34,14Z"/><path class="cls-2" d="M921.45,82.7s14.15,72.7,27.25,87.94"/><path class="cls-2" d="M1013.82,87.22s-71.69,25.27-74.61,34S935.86,134,935.86,134s4.43,6.75,10.27,6.79,36.3.88,36.3.88L1062.7,147"/><path d="M1081.42,89.35a65.13,65.13,0,0,0,5.25,14.87c.77,2.11,1.53,5.35,2.14,7.56,1.28,4.81,4.91,17.72,6.3,22.67,2.27,7.45,4.29,15.46,7.6,22.29l.62.69s.14.13-.13-.08a4.82,4.82,0,0,0-1.79-.81c-.85-.58-5.44.38-6,3.1-.74,3.46-.21,1.85-.25,3a3.51,3.51,0,0,0,.34,1c-2.68-4.14-7.13-9.75-11.44-13,0,0,0,0,0,0l-.11,0-.21-.07-.42-.16c-6.71-2.35-15.21-3.49-19-10.46-.81-1.53-3.42-7.84-4.18-9.52-2.59-6.14-5.36-12.27-6.52-19a19.27,19.27,0,0,1-.13-4.16c.4-3.17,2.87-6.18,4.77-8.32a109.2,109.2,0,0,1,30.5-22.16c3.81-1.71,7.78-3.41,12.45-3h.24l.5,0c.42-.07.91,0,1.34-.09,8.46-1.22,18.1-4.74,27.58-3.78a33.46,33.46,0,0,1,13.92,4.65c7.35,4.08,11.79,11.5,8.63,18.11-3.69,8.22-10.54,15.94-19.79,17.81-11.42,2.59-23.66,4.88-34.64,8.46a30.32,30.32,0,0,0-4,1.63,79.17,79.17,0,0,0-6.88,4.37,11.67,11.67,0,0,0-2.06,1.84,2.76,2.76,0,0,0,.2-1.45,5,5,0,0,0-1.51-2.85.46.46,0,0,0-.07-.07.44.44,0,0,0-.12-.08.2.2,0,0,1,.08,0c6.77,3.1,15,4.51,22.31,6.17,1,.19,4.27.86,4.9,1,10.12,1.31,20.3,2.42,30.46,3.36,12.65,1,25.2,2.33,37.65,1.14l.72-.12.7-.12.59-.14.3-.06.47-.12c6.93-2,13.36-1.73,19.57-2.63a49.43,49.43,0,0,0,10.38-2.94,42.1,42.1,0,0,0,4.52-2c2.62-1.29,8.56-5.22,9.75-.64a2.66,2.66,0,0,1-.08,1.13,15.41,15.41,0,0,1-4.55,6.5,42.07,42.07,0,0,1-6.33,5.1c-4.59,2.92-10.46,4.39-15.74,4.87s-9.53.75-13.5,1.89a45.54,45.54,0,0,1-5.09,1.15c-13.47,1.62-27.14.39-40.41-.44q-15.75-1.19-31.4-3.08c-1.2-.19-4.22-.78-5.46-1-7.55-1.53-14.79-3-22.17-5.54-2.07-.75-5.21-2.05-7-4-3-3-2.9-8.23-.76-11.7a15.26,15.26,0,0,1,1.91-2.6c3.08-3.33,6.8-5.48,10.27-7.64a38.21,38.21,0,0,1,7.9-3.64c11.91-3.92,23.9-6.16,36-8.92,4.92-1,8.16-5.5,10.34-9.82.11-.24.34-.74.46-1a3.1,3.1,0,0,0-.39,2.2c-1.14-1.67-4-3.14-5.9-4-3.81-1.73-7.65-1.76-11.91-1.29-7.48.85-16.5,4.25-23.69,3.47a21.66,21.66,0,0,0-5.21,1.79A104.44,104.44,0,0,0,1081.54,96a131.4,131.4,0,0,0-12.1,8.78,34.56,34.56,0,0,0-4.74,4.59l-.06.07c0-.12.1-.32.1-.5v-.18a1.24,1.24,0,0,1,0,.27c0,.06,0,.11,0,.18v.31a9.26,9.26,0,0,0,.08,1.39c1,7.88,4.54,16.39,7.13,24,1.53,4.69,8.45,5.83,12.81,6.72.51.09,1.32.27,1.82.38a11.55,11.55,0,0,1,3.24,1.39c5,3.29,8.7,7.55,12.51,12,1.2,1.6,2.51,2.86,3.08,5,0,1.21.52-.35-.25,3.14-.52,2.78-5.17,3.73-6,3.14a5.75,5.75,0,0,1-1.42-.55,9.86,9.86,0,0,1-2-1.64,16.2,16.2,0,0,1-1.75-2,57.34,57.34,0,0,1-4.54-9.27c-2.07-5.06-3.84-10.09-5.55-15.15-2.53-7.27-4.94-15.38-7.15-22.78-.55-2.25-1.74-5.39-2.1-7.66a73.11,73.11,0,0,0-3-15.64c-1.89-6.88,8.17-9.53,9.9-2.58Z"/><path d="M1220.46,123.56c-.35.64-.2.4-.23.42.8-2.58,2-6.7,2.81-9.33,2.7-9.4,5.31-19.33,6.31-28.89.25-2.73.46-6-.15-8.47a2.21,2.21,0,0,0-.34-.83s0,0,0,.05h0l0,0-.08-.06c-.06-.06-.11,0,.41.28a3.47,3.47,0,0,0,1.48.29,3.83,3.83,0,0,0,3.09-1.7,36.44,36.44,0,0,0,.46,9.94,145.15,145.15,0,0,0,15.55,44.85,34.24,34.24,0,0,0,6.92,8.66c1.23,1.18,4.26,4,5.52,5.21,3.66,3.33,7.44,7.21,11.36,10,.07,0,0-.11-.68-.32a4.64,4.64,0,0,0-1-.18c-.27,0-.31,0-.18,0a23.73,23.73,0,0,1,2.56-.17,7,7,0,1,1-.74,14,2.36,2.36,0,0,0-.71,0c-.3,0-.76,0-1.45,0-4.79-.24-7.72-3.92-10.84-6.78l-7.27-7.21c-4.72-4.57-11.14-10.69-14.54-16.14-8.12-12-12.08-26.07-14.33-40.14-1-7.29-1.88-14.47-.9-21.93.36-2.2,1.24-5.37,3.64-6.89,2.69-1.92,6.53-.84,8.38,1.28,4.57,4.77,3.48,11.74,2.81,17.47-1.95,12-5.62,23.5-9.65,34.92-.49,1.34-1.29,3.43-1.84,4.73a3.54,3.54,0,1,1-6.38-3Z"/><path d="M1293.56,74.17c3.8,14.29,8.27,28.75,13.39,42.66,5.08,13.62,11,27.63,19.4,39.29a3.67,3.67,0,0,1-5.49,4.86c-1.36-1.47-2.71-3-4-4.51-8.21-10.84-14.4-23.21-20-35.48a455.43,455.43,0,0,1-16.72-42.92,7,7,0,1,1,13.44-3.9Z"/><path d="M1278.22,79.48c6.71-8.35,17-13.36,27.43-14.6a60.58,60.58,0,0,1,9.71-.22c12.17.65,24.78.28,36.44,4.74l10.85,4.26c3.07,1.22,6.88,2.84,9.93,2.91a2.53,2.53,0,0,1,2.87,2.49c-.16,3.74-6.71,2.77-8.79,2.67-6.09-.62-11.94-2.62-17.62-4.33-7.09-2.12-14.49-2-22-1.85-3.87.1-7.77.26-11.69.43a41.67,41.67,0,0,0-10.33,1.38c-6,1.71-11.68,5.11-15.34,10.11-5.56,7.41-16.52-.17-11.5-8Z"/><path d="M1289.82,97.78c14.63-1.56,29.12-3.26,43.85-3.9,6.43-.14,12.77.36,19.06.67,9.21.5,18.42.78,27.64.62,3.09-.17,6.18.29,9.26.31l-.6.13c2.15-.55,4.38-1.16,6.49-1.86a39.14,39.14,0,0,0,6.13-2.49,2,2,0,0,1,2,3.47,66.11,66.11,0,0,1-6.41,3.38c-2.06.9-4.59,2.19-6.68,2.94a87.19,87.19,0,0,1-12.83,2.24c-12.34,1.35-25.21,1.7-37.41,2.29-8.1.39-15.87,2-23.87,3.31s-16.26,2.87-24.35,4.39a7.84,7.84,0,1,1-2.31-15.5Z"/><path d="M1371.89,61.2c13.63-8.79,29.17-14.79,45.51-15.85,3.43-.24,7.1,0,10.55.07,8.24.26,16.36.1,24.74,0a313.63,313.63,0,0,1,53.36,3.4l.64.09c.16,0,.58.09.72.13,3.52,1.09,7.06,2.29,10.66,3.07,4.88.94,9.71,2,14.6,2.77a2.43,2.43,0,0,1,.41,4.64c-6.87,2.43-14.22,1-21.3.86l-5.13-.2c-1.35,0-3.41-.38-4.79-.52a301.3,301.3,0,0,0-48.94-1.89c-9.54.29-19.42.67-29.09.42A69.93,69.93,0,0,0,1396.15,64a91,91,0,0,0-16.22,8.7c-7.78,5.17-15.61-5.81-8-11.46Z"/></svg>