<svg id="Layer_1" data-name="Layer 1" xmlns="http://www.w3.org/2000/svg" viewBox="0 0 1546 215"><defs><style>.cls-1{fill:#33459c;}.cls-2{fill:none;stroke:#33459c;stroke-linecap:round;stroke-linejoin:round;stroke-width:3px;}</style></defs><path class="cls-1" d="M1407,82.25c3,23.62,10,68.49,25.12,86.32a.79.79,0,0,1-1.12,1.12c-9.8-9.55-14.89-28.9-18.44-42a426.48,426.48,0,0,1-8.54-45.12,1.5,1.5,0,1,1,3-.35Z"/><path class="cls-1" d="M25.65,166.64a21.89,21.89,0,0,1-2-6.49c-.76-4.43-1.3-8.9-2.2-13.3-.74-4.2-5.43-28.36-6.32-33.1l-1.33-6.6-1.44-6.8a1.55,1.55,0,0,1,.26-.89,1.35,1.35,0,0,1,1.91-.22,16.49,16.49,0,0,1,2.16,2.48c2,2.58,4.15,5.42,6.23,7.92C33.79,122.46,48.31,137.29,66.4,136c8.44-.91,17-5.61,21.4-13,6.65-11.68,3.24-26.28-1.75-38-1.74-3.72-3.69-8-6.44-10.83l.63-.21c.08-.1,0,0,0,.09-.17,5.16,1.46,10.27,2.51,15.3,4,15.9,8.92,31.57,14.22,47.08,5.51,15.37,11.3,30.82,19.76,44.82,2.78,4.23,5.93,9.25,10.6,11.28A1.14,1.14,0,0,1,128,194a1.12,1.12,0,0,1-1.44.64c-8.7-3.71-15.44-18.55-19.52-26.81A401.46,401.46,0,0,1,79.34,81.65c-.15-1.68-1.91-9,.45-9,.89.16,1.24.76,1.8,1.3a45.42,45.42,0,0,1,6.16,10.31c5.46,12.27,9,27.5,1.93,39.89-4.83,8.08-13.82,13.08-23.06,14.14-19.05,1.4-34.15-13.72-45.5-27.11-2.66-3.12-5.17-6.69-7.82-9.81l-.15-.14a1.57,1.57,0,0,0,.29.12,1.14,1.14,0,0,0,1.36-1l.34,1.4c3.2,14.75,5.94,29.87,8.77,44.7.76,4.43,1.88,8.79,2.77,13.2a21.77,21.77,0,0,1,.49,6.76.81.81,0,0,1-.91.71.83.83,0,0,1-.61-.42Z"/><path class="cls-2" d="M137.64,103.56s2.9-10.51,1.69-15,25.22,74.68,25.22,74.68-1.7-10.43,0-13.82"/><path class="cls-1" d="M199.44,165.3c-3.08-12.18-7.83-29.8-11.16-42.11L177,81.13a1.24,1.24,0,0,1,2.32-.86c2.26,4.32,4.66,8.63,7.15,12.87a270.78,270.78,0,0,0,24.74,36.58c12.27,14.89,26.6,29.43,45,36.3,22.58,7.89,4-36.75.76-45.42a565.62,565.62,0,0,0-25.23-53.41,1.19,1.19,0,0,1-.15-.71,21.69,21.69,0,0,1,.62-3.43,5.13,5.13,0,0,1,1.58-2.81c1-.83,3.2-.26,2.65,1.35a1.24,1.24,0,0,1-1.61.71.49.49,0,0,0,.4,0,1.43,1.43,0,0,0-.16.23,13.24,13.24,0,0,0-1,4.22l-.14-.71a568.93,568.93,0,0,1,25.43,53.65c3.65,9.2,7.09,18.54,9.22,28.35,7.84,36.84-23.68,17.8-38.79,4.95-15.11-13-27.26-29-38-45.69a229.18,229.18,0,0,1-14.65-25.91l2.32-.87c6.73,24.28,16.08,60.15,23,84a1.5,1.5,0,1,1-2.89.79Z"/><path class="cls-1" d="M609,170.57c-3.08-12.17-7.84-29.79-11.16-42.1L586.48,86.41a1.24,1.24,0,0,1,2.31-.87c2.27,4.32,4.66,8.64,7.15,12.87A272,272,0,0,0,620.67,135c12.29,14.87,26.6,29.48,45,36.29,22.59,7.93,4-36.75.76-45.41a565.7,565.7,0,0,0-25.24-53.41,9.51,9.51,0,0,1-.33-3c.06-.88.12-2.09,1.25-2.64s2.35.25,2,1.37a1.05,1.05,0,0,1-1.35.6c-.07,0,0,0,.22,0s.22-.19.21-.12a8.36,8.36,0,0,0,.31,3l-.13-.33c11.57,21.89,22.51,44.17,30.62,67.6,3.78,11.05,13.21,41.84-9.14,34.92-9.62-3.42-18-9.12-25.61-15.57-15.12-13-27.27-29-38-45.7a225.94,225.94,0,0,1-14.65-25.91l2.31-.86,11.41,42c3.45,12.33,8,29.89,11.56,42a1.5,1.5,0,1,1-2.89.78Z"/><path class="cls-1" d="M379.37,76.46c6.28,25.33,15,65.81,22,90.43l.1.24s0,.05-.09-.12a1.49,1.49,0,0,0-.77-.45.79.79,0,0,0-.38,0c2.35-1,4.68-2.7,7.11-3.92a.75.75,0,0,1,1,.31.77.77,0,0,1-.1.86,28.35,28.35,0,0,1-4.93,4.39c-1.23.85-3.56,2.36-4.54.3-4.44-13.5-7.26-27.42-10.79-41.17-3.46-14.69-8.4-35.62-11.56-50.18a1.5,1.5,0,0,1,2.93-.67Z"/><path class="cls-1" d="M444.79,76.7c2.14,19.19,6.68,71.38,20.38,83.6a1,1,0,0,1-1.12,1.6c-9.71-6.9-14-29.63-16.37-41.09a360.33,360.33,0,0,1-5.47-43.93,1.29,1.29,0,0,1,2.58-.18Z"/><path class="cls-1" d="M385.33,123.11c13.64-1.09,34.4-1.57,48.24-2.21,14.13-.54,34.21-1.48,48.17-1.64a.69.69,0,0,1,.06,1.37c-22.17,1.65-49.85,2.78-72.17,4.07-6.85.34-17.2,1-24,1.11a1.36,1.36,0,1,1-.33-2.7Z"/><path class="cls-1" d="M499.18,87.9l30.11,76.6a1.15,1.15,0,0,1-2.13.86c-7.4-18.37-14.67-36.74-20.1-55.82a70.27,70.27,0,0,1-2.29-11.06c-.16-2.11-.42-4.84,1.65-6.2,3.44-2.62,5.25-6.44,8.23-9.66A15.53,15.53,0,0,1,529,77.38a21.41,21.41,0,0,1,13,8.83c5.32,14.18,10.77,28.33,16.5,42.33,2.15,5.22,4.21,10.52,6.75,15.54a10.9,10.9,0,0,0,1.74,2.7c3,3.36,5.31,7.3,8.4,10.57a34.36,34.36,0,0,0,8.67,6.75.5.5,0,0,1,.18.68.48.48,0,0,1-.54.21c-7.62-2.12-12.62-9.15-17.08-15.06-.61-.78-1.18-1.34-1.84-2.11a16.77,16.77,0,0,1-1.65-2.63c-2.63-5.1-4.86-10.37-7.09-15.64C550.54,116,544.4,100,539.85,87.35c-4.8-6.49-13.61-10.58-20.87-5.42-4.2,3.06-6.33,8.21-10.33,11.65-.26.18-.93.74-1.18.92-.59,1-.4,2.4-.33,3.76,1.94,13.32,7,26,11.45,38.67q5.1,13.86,10.69,27.55s-2.12.86-2.12.87L496.39,89a1.5,1.5,0,0,1,2.79-1.11Z"/><path class="cls-1" d="M509.93,122.43l59.94-13.3a.9.9,0,0,1,.41,1.76l-59.67,14.47a1.5,1.5,0,0,1-.68-2.93Z"/><path class="cls-1" d="M542.13,42.81c-7,1-17.32,2.28-24.32,3.16a26.76,26.76,0,0,1-10.13-.2c-2.58-.55-5.48-2.08-6.56-4.78a5.09,5.09,0,0,1,2.77-6.42,3.89,3.89,0,0,1,1.64-.28c1.47,0,3.17-.17,4.79-.25,7.94-.62,12.85.48,19.11,5.55,1.13,1.09,5.4,3.51,3.38,5.26a1.31,1.31,0,0,1-1.48,0,40.81,40.81,0,0,1-3.73-3,26.81,26.81,0,0,0-7.86-4.79c-4.64-1.41-9.46-.69-14.31-.73a2.81,2.81,0,0,0-2.49,2.12c-1.14,5,8.88,5.54,12.2,5.26l7.28-.9c4.83-.61,14.58-1.76,19.42-2.3a1.13,1.13,0,0,1,.29,2.25Z"/><path class="cls-1" d="M708.85,71.42c5.6,23.27,11.4,46.54,18.44,69.42,2.15,6.57,4.12,13.28,7.33,19.41a6.52,6.52,0,0,0,1.6,2.07.93.93,0,0,1-1.07,1.51,7.92,7.92,0,0,1-2.17-2.64,62.91,62.91,0,0,1-3.75-8.34C725,141.59,721.64,130,718.3,118.5c-4.38-15.39-8.47-30.85-12.37-46.37a1.5,1.5,0,0,1,2.92-.71Z"/><path class="cls-1" d="M697.29,102.7a96.14,96.14,0,0,1-3-13.13c-.15-1.89-.77-5,1.57-6.06,10.56-5.26,22.31-10,34.37-8.09,4.51.8,8.56,3.18,12.7,5,10,4.91,20.33,10.35,27.7,19,4.33,5.28,7.26,11.53,9.67,17.84,1.52,4.4,3,8.49,3.38,13.27-.64,8.55-5.6,18.83-12.88,23.71a114.28,114.28,0,0,0-10.93,7.49c-7.4,5.36-16.75,7.29-25.68,7.84a107.77,107.77,0,0,1-13.45,0,4.7,4.7,0,0,1-1.76-.88c-6.34-5.11-1.46-16.06,5-18.84a1,1,0,1,1,.78,1.94c-4.9,2.11-9.32,11.18-4.47,15.16a4.46,4.46,0,0,0,.9.51l-.28-.06c8.66.4,17.65.11,26-2.14a36.27,36.27,0,0,0,11.62-5.48,118.12,118.12,0,0,1,11-7.58c6.08-4.13,9.65-11.61,11.32-18.67.84-3.18,0-6-.83-9.22a76.93,76.93,0,0,0-7.71-18c-6.61-11.35-19.08-17.76-30.62-23.35-3-1.35-5.92-2.82-9-4-9.26-2.85-19.28.13-28.06,3.61-2.62,1.06-5.25,2.32-7.75,3.61.42-.19.35-.55.24,0-.42,5.24.61,10.75,1.32,16.05a.59.59,0,0,1-1.14.27Z"/><path class="cls-1" d="M856.16,82c-12.63,3.88-25.6,7.56-38.43,10.78-2.36.66-6,1.26-8.16,2.27,0,0,0,.07.16-.24a1.09,1.09,0,0,0,.13-.44,1.16,1.16,0,0,0-.37-.94c3.92,1.06,8.67,1.13,12.92,1.55,5.29.41,10.6.79,15.91,1.31,7.92,1,16.51,1.36,23.8,5.07,4.69,2.66,9.77,3.92,14.51,6.73s8.21,7.4,11.34,11.87a43,43,0,0,1,2.77,4.42,14.71,14.71,0,0,1,1,3.23,13.11,13.11,0,0,1-1.72,8.59c-6.52,11.57-28.35,21.94-41,24.77-7.74,2.23-15.91,5.11-24.11,3.29-9.3-1.93-13.48-10.76-13.34-19.57a29.2,29.2,0,0,1,1.07-8.76c1.9-2.42,3.84-4.54,6.82-5.76a1.43,1.43,0,1,1,1,2.68c-2.11.84-4.07,2.91-5.47,4.75l.23-.5c-1.38,7-1.41,15.8,4,21.09,8.1,7.08,19.75,2.61,29,0,7.69-1.67,14.91-5,21.82-8.7,8.5-4.84,24.93-15.09,16.65-26.24-3.2-4.73-6.67-9.65-11.56-12.66a46.56,46.56,0,0,0-7-3.24c-4.89-1.81-9.27-5-14.49-5.89-10.26-2.16-20.93-2.68-31.43-3.53-2.65-.21-5.3-.41-8-.69A22.47,22.47,0,0,1,808.06,96a1.89,1.89,0,0,1-1-2.55c.59-1,1.26-1.1,2-1.47,2.33-.9,5.5-1.42,7.87-2.09l7.7-2c10.24-2.72,20.45-5.65,30.56-8.79a1.5,1.5,0,0,1,.89,2.87Z"/><path class="cls-2" d="M921.45,89.18s14.15,72.7,27.25,87.94"/><path class="cls-2" d="M1013.82,93.7s-71.69,25.27-74.61,34-3.35,12.78-3.35,12.78,4.43,6.75,10.27,6.79,36.3.88,36.3.88l80.27,5.32"/><path class="cls-1" d="M1077.6,96.82c1.29,5.1,2.78,10.16,4.37,15.17,4.15,14.69,8.55,31,13.7,45.25,1.41,3.4,2.41,7.31,5.12,9.8a1.18,1.18,0,0,0-1.62.58c-.16.78-.05.4-.06.65l0,.09a25.77,25.77,0,0,0-1.83-2.65c-1.57-2.06-3.25-4.06-5-6-2.66-2.71-5.2-5.73-9-6.47-3.75-1.09-8-1.94-11.42-4a11.77,11.77,0,0,1-5.38-6.43l-2.94-7.33c-2.25-5.85-4.72-11.84-5.67-18.17a9.66,9.66,0,0,1,.19-4c1.42-3.1,4.08-5.42,6.38-7.61a116.57,116.57,0,0,1,12.62-9.81,102.28,102.28,0,0,1,13.83-8.09,25.54,25.54,0,0,1,8-2.55c2.55,0,3.64.26,5.82-.12,8.36-1.28,16.9-4.43,25.67-3.59,6.43.55,17.55,5.14,18.75,12.32a5.74,5.74,0,0,1-.31,2.68,33.85,33.85,0,0,1-3.82,6.63c-3,4.13-7.4,7.68-12.56,8.67-12.79,3-26.19,5.16-38.42,9.93a59.61,59.61,0,0,0-9,5.51c-1.66,1.24-4.48,3.63-3.75,5.42a12.81,12.81,0,0,0,3.8,1.92A161.6,161.6,0,0,0,1106,140c1.2.22,4.09.82,5.26,1,19.76,2.36,39.72,4.59,59.61,4.67,4.74,0,9.52-.18,14.08-1.51,4.86-1.32,9.87-1.48,14.61-2a40.06,40.06,0,0,0,21.12-8.16c1.51-1,2.87-2.19,4.42-3.18a.5.5,0,0,1,.7.15.5.5,0,0,1,0,.61c-6.54,7.48-16,12.6-25.93,13.24-4.9.5-9.66.67-14.19,1.92-4.78,1.41-9.82,1.59-14.75,1.65-19.52,0-38.84-2.09-58.19-4.29-1.08-.11-2.63-.32-3.69-.54-8.43-1.65-16.77-3.24-25-6.09-2-.84-4.72-1.58-5.69-3.82-1.11-3.83,2.22-6.83,4.85-8.81,4.12-2.95,8.3-5.68,13.1-7.23,9.33-3.08,18.84-5.05,28.38-7.16,1.12-.27,7.75-1.65,8.73-2a14.36,14.36,0,0,0,4.39-2.24,27.11,27.11,0,0,0,8.26-10.89,3.58,3.58,0,0,0-.37-2.46c-1.74-3.11-5.19-4.92-8.46-6.43-7-3.22-15-1.9-22.31-.28-4.82,1-9.85,2.58-14.87,2.12-2.68-.1-5.41,1.18-7.9,2.27a104.08,104.08,0,0,0-13.45,7.79,123,123,0,0,0-12.42,9.44c-2.2,2-4.49,4-5.8,6.5a8.25,8.25,0,0,0-.09,2.81c.84,6.07,3.1,11.83,5.24,17.65l2.83,7.38a9.52,9.52,0,0,0,4.43,5.49c3.81,2.35,8.54,3,12.86,4.26,3.33,1.27,5.75,4,8.13,6.36a78.74,78.74,0,0,1,6.44,7.69,6.92,6.92,0,0,1,1.07,1.84c0,.29.13-.05-.06.76-.12.66-1.21.87-1.42.74a6.18,6.18,0,0,1-2.18-1.89c-2.11-2.79-3.19-6.11-4.48-9.23-1.9-5-3.56-10-5.16-15q-4.76-15.1-9-30.36c-1.2-5.14-2.46-10.25-3.85-15.35a1.17,1.17,0,1,1,2.26-.59Z"/><path class="cls-1" d="M1222.83,131.49c.9-2.6,2.27-6.79,3.09-9.45,2.92-9.61,5.67-19.42,6.95-29.36a31.13,31.13,0,0,0,0-9.73,4.75,4.75,0,0,0-2.15-3.32c-.22-.06-.15,0-.2,0a1.66,1.66,0,0,0-.35.56c-1.18,3.77-.59,8-.25,12,2.28,17.83,9.12,41.6,21.51,54.92,4.79,4.64,9.74,9.37,14.62,13.93,1.66,1.45,3.49,3.43,5.38,4.26a20,20,0,0,0,2.12-.07,1.5,1.5,0,0,1,0,3,9.65,9.65,0,0,1-2.92-.08c-2.83-1.11-4.39-3.21-6.53-5-4.26-4-10.35-10-14.61-14.1-13.43-14.25-19.76-37.52-21.94-56.6a48.52,48.52,0,0,1-.07-10.37c.28-1.46.45-3.12,1.85-4.19,2.78-1.55,5.15,2.37,5.53,4.66a32.81,32.81,0,0,1,0,10.42c-1.42,10.15-4.26,19.9-7.31,29.62-1,3.11-2.1,6.4-3.26,9.47a.77.77,0,1,1-1.41-.52Z"/><path class="cls-1" d="M1288.28,82.18c4.23,14.45,9.09,28.79,14.7,42.77,4.89,12.17,10.41,24.26,17.79,35.14l3.43,4.42a.79.79,0,0,1-1.18,1c-10-11.64-16.17-25.81-22.2-39.72-5.86-14-10.94-28.29-15.42-42.81a1.5,1.5,0,0,1,2.88-.84Z"/><path class="cls-1" d="M1282.74,89.1c7.72-9.8,20.48-14.07,32.63-13.5,11.8.26,24-.52,35.34,3.43,3.71,1.32,7.39,2.66,11.09,3.89,3.59,1.06,7.47,2.52,11.2,2a.53.53,0,1,1,.23,1c-4.1.72-8-.58-11.88-1.59s-7.51-2.42-11.23-3.66c-7.31-2.5-15.17-2.72-23-2.79-7.69.17-15.62-.56-23.17,1.19a33.76,33.76,0,0,0-18.77,11.67,1.5,1.5,0,1,1-2.46-1.71Z"/><path class="cls-1" d="M1290.76,110.52q12.32-1.72,24.65-3.27c8.24-1,16.54-2.15,24.87-2.1,16.58.26,33,.4,49.58-.91,3.68-1.26,8.8-2.95,12.59-5.08a.37.37,0,0,1,.53.14.39.39,0,0,1-.14.52,48.78,48.78,0,0,1-6.27,3c-2.18.89-4.37,1.75-6.61,2.48-16.44,2.12-33.14,1.86-49.66,2-8.25.09-16.39,1.41-24.55,2.49s-16.37,2.4-24.54,3.68a1.5,1.5,0,0,1-.45-3Z"/><path class="cls-1" d="M1375.07,72.17c12.8-8.34,27.37-14.11,42.66-15.21,5-.34,10.06.09,15.09.07,6.63,0,13.29-.14,20-.25,20-.35,40.27.32,59.93,4.33,6.29,1,13.24,2.55,19.55,2a.54.54,0,0,1,.67.42c-.39,2.87-22.42-.68-25.52-1.06-4.89-.77-9.86-1.33-14.79-1.85-19.87-2.12-39.85-1-59.81-.85-5,.05-10-.36-14.9,0a78.52,78.52,0,0,0-23.75,5.73,96.32,96.32,0,0,0-17.36,9.13,1.5,1.5,0,1,1-1.73-2.45Z"/></svg>